<svg id="Layer_1" data-name="Layer 1" xmlns="http://www.w3.org/2000/svg" viewBox="0 0 1041 501"><defs><style>.cls-1{fill:#b3b3b3;}.cls-2{fill:#ccc;}.cls-3{fill:#e6e6e6;}.cls-4{fill:#fff;}.cls-5{font-size:128px;font-family:MyriadPro-Regular, Myriad Pro;}</style></defs><title>Artboard 1</title><rect class="cls-1" x="39.82" y="11.5" width="991" height="477" rx="28.31"/><path d="M1002.51,13a26.84,26.84,0,0,1,26.81,26.81V460.19A26.84,26.84,0,0,1,1002.51,487H68.13a26.84,26.84,0,0,1-26.81-26.81V39.81A26.84,26.84,0,0,1,68.13,13h934.38m0-3H68.13A29.81,29.81,0,0,0,38.32,39.81V460.19A29.81,29.81,0,0,0,68.13,490h934.38a29.81,29.81,0,0,0,29.81-29.81V39.81A29.81,29.81,0,0,0,1002.51,10Z"/><rect class="cls-2" x="30.82" y="11.5" width="991" height="477" rx="28.31"/><path d="M993.51,13a26.84,26.84,0,0,1,26.81,26.81V460.19A26.84,26.84,0,0,1,993.51,487H59.13a26.84,26.84,0,0,1-26.81-26.81V39.81A26.84,26.84,0,0,1,59.13,13H993.51m0-3H59.13A29.81,29.81,0,0,0,29.32,39.81V460.19A29.81,29.81,0,0,0,59.13,490H993.51a29.81,29.81,0,0,0,29.81-29.81V39.81A29.81,29.81,0,0,0,993.51,10Z"/><rect class="cls-3" x="21.5" y="12.5" width="991" height="477" rx="28.31"/><path d="M984.19,14A26.84,26.84,0,0,1,1011,40.81V461.19A26.84,26.84,0,0,1,984.19,488H49.81A26.84,26.84,0,0,1,23,461.19V40.81A26.84,26.84,0,0,1,49.81,14H984.19m0-3H49.81A29.81,29.81,0,0,0,20,40.81V461.19A29.81,29.81,0,0,0,49.81,491H984.19A29.81,29.81,0,0,0,1014,461.19V40.81A29.81,29.81,0,0,0,984.19,11Z"/><rect class="cls-4" x="10.27" y="11.71" width="991" height="477" rx="28.31"/><path d="M973,13.21A26.84,26.84,0,0,1,999.77,40V460.4A26.84,26.84,0,0,1,973,487.21H38.58A26.84,26.84,0,0,1,11.77,460.4V40A26.84,26.84,0,0,1,38.58,13.21H973m0-3H38.58A29.81,29.81,0,0,0,8.77,40V460.4a29.81,29.81,0,0,0,29.81,29.81H973a29.81,29.81,0,0,0,29.81-29.81V40A29.81,29.81,0,0,0,973,10.21Z"/><text class="cls-5" id="text" transform="translate(245.66 303.15)">_ _ _ _ _ _</text></svg>